<svg width="128" height="178" viewBox="0 0 128 178" fill="none" xmlns="http://www.w3.org/2000/svg">
<mask id="path-1-outside-1_1_38" maskUnits="userSpaceOnUse" x="5" y="12" width="118" height="161" fill="black">
<rect fill="white" x="5" y="12" width="118" height="161"/>
<path d="M112.6 112C112.6 120.4 109.55 127.75 103.45 134.05C97.45 140.25 88.85 144.35 77.65 146.35V163H56.5V147.1C49 146.7 41.8 145.55 34.9 143.65C28.1 141.75 22.45 139.4 17.95 136.6L29.35 110.8C34.35 113.7 39.95 116.05 46.15 117.85C52.35 119.55 58.3 120.4 64 120.4C68.9 120.4 72.4 119.95 74.5 119.05C76.6 118.05 77.65 116.6 77.65 114.7C77.65 112.5 76.25 110.85 73.45 109.75C70.75 108.65 66.25 107.45 59.95 106.15C51.85 104.45 45.1 102.65 39.7 100.75C34.3 98.75 29.6 95.55 25.6 91.15C21.6 86.65 19.6 80.6 19.6 73C19.6 64.2 22.75 56.65 29.05 50.35C35.45 44.05 44.6 40.05 56.5 38.35V22H77.65V38.05C89.65 39.15 99.8 42.05 108.1 46.75L97.45 72.4C87.15 67.2 77.4 64.6 68.2 64.6C59.1 64.6 54.55 66.8 54.55 71.2C54.55 73.3 55.9 74.9 58.6 76C61.3 77 65.75 78.1 71.95 79.3C79.95 80.8 86.7 82.55 92.2 84.55C97.7 86.45 102.45 89.6 106.45 94C110.55 98.4 112.6 104.4 112.6 112Z"/>
</mask>
<path d="M112.6 112C112.6 120.4 109.55 127.75 103.45 134.05C97.45 140.25 88.85 144.35 77.65 146.35V163H56.5V147.1C49 146.7 41.8 145.55 34.9 143.65C28.1 141.75 22.45 139.4 17.95 136.6L29.35 110.8C34.35 113.7 39.95 116.05 46.15 117.85C52.35 119.55 58.3 120.4 64 120.4C68.9 120.4 72.4 119.95 74.5 119.05C76.6 118.05 77.65 116.6 77.65 114.7C77.65 112.5 76.25 110.85 73.45 109.75C70.75 108.65 66.25 107.45 59.95 106.15C51.85 104.45 45.1 102.65 39.7 100.75C34.3 98.75 29.6 95.55 25.6 91.15C21.6 86.65 19.6 80.6 19.6 73C19.6 64.2 22.75 56.65 29.05 50.35C35.45 44.05 44.6 40.05 56.5 38.35V22H77.65V38.05C89.65 39.15 99.8 42.05 108.1 46.75L97.45 72.4C87.15 67.2 77.4 64.6 68.2 64.6C59.1 64.6 54.55 66.8 54.55 71.2C54.55 73.3 55.9 74.9 58.6 76C61.3 77 65.75 78.1 71.95 79.3C79.95 80.8 86.7 82.55 92.2 84.55C97.7 86.45 102.45 89.6 106.45 94C110.55 98.4 112.6 104.4 112.6 112Z" fill="#00C8FF"/>
<path d="M103.45 134.05L96.2658 127.094L96.264 127.096L103.45 134.05ZM77.65 146.35L75.8921 136.506L67.65 137.978V146.35H77.65ZM77.65 163V173H87.65V163H77.65ZM56.5 163H46.5V173H56.5V163ZM56.5 147.1H66.5V137.619L57.0326 137.114L56.5 147.1ZM34.9 143.65L32.209 153.281L32.2271 153.286L32.2452 153.291L34.9 143.65ZM17.95 136.6L8.80313 132.558L5.29301 140.502L12.667 145.091L17.95 136.6ZM29.35 110.8L34.3672 102.15L24.7135 96.5506L20.2031 106.758L29.35 110.8ZM46.15 117.85L43.3619 127.453L43.4336 127.474L43.5057 127.494L46.15 117.85ZM74.5 119.05L78.4392 128.241L78.6209 128.164L78.7993 128.079L74.5 119.05ZM73.45 109.75L69.677 119.011L69.7351 119.035L69.7935 119.058L73.45 109.75ZM59.95 106.15L57.896 115.937L57.9125 115.94L57.9291 115.944L59.95 106.15ZM39.7 100.75L36.2269 110.127L36.3037 110.156L36.3809 110.183L39.7 100.75ZM25.6 91.15L18.1259 97.7936L18.163 97.8354L18.2006 97.8767L25.6 91.15ZM29.05 50.35L22.0348 43.2235L22.0068 43.2511L21.9789 43.2789L29.05 50.35ZM56.5 38.35L57.9142 48.2495L66.5 47.0229V38.35H56.5ZM56.5 22V12H46.5V22H56.5ZM77.65 22H87.65V12H77.65V22ZM77.65 38.05H67.65V47.1752L76.7372 48.0082L77.65 38.05ZM108.1 46.75L117.336 50.5846L120.73 42.4098L113.027 38.0483L108.1 46.75ZM97.45 72.4L92.9432 81.3269L102.556 86.18L106.686 76.2346L97.45 72.4ZM58.6 76L54.827 85.2609L54.976 85.3216L55.1269 85.3775L58.6 76ZM71.95 79.3L70.0498 89.1178L70.0784 89.1233L70.1071 89.1287L71.95 79.3ZM92.2 84.55L88.7826 93.9479L88.8585 93.9755L88.9348 94.0019L92.2 84.55ZM106.45 94L99.0506 100.727L99.092 100.772L99.1339 100.817L106.45 94ZM102.6 112C102.6 117.68 100.648 122.568 96.2658 127.094L110.634 141.006C118.452 132.932 122.6 123.12 122.6 112H102.6ZM96.264 127.096C92.1275 131.37 85.6781 134.758 75.8921 136.506L79.4079 156.194C92.0219 153.942 102.773 149.13 110.636 141.004L96.264 127.096ZM67.65 146.35V163H87.65V146.35H67.65ZM77.65 153H56.5V173H77.65V153ZM66.5 163V147.1H46.5V163H66.5ZM57.0326 137.114C50.215 136.751 43.7285 135.709 37.5548 134.009L32.2452 153.291C39.8715 155.391 47.785 156.649 55.9674 157.086L57.0326 137.114ZM37.591 134.019C31.4217 132.295 26.7112 130.274 23.233 128.109L12.667 145.091C18.1888 148.526 24.7783 151.205 32.209 153.281L37.591 134.019ZM27.0969 140.642L38.4969 114.842L20.2031 106.758L8.80313 132.558L27.0969 140.642ZM24.3328 119.45C30.1107 122.801 36.4724 125.453 43.3619 127.453L48.9381 108.247C43.4276 106.647 38.5894 104.599 34.3672 102.15L24.3328 119.45ZM43.5057 127.494C50.4592 129.401 57.3011 130.4 64 130.4V110.4C59.2989 110.4 54.2409 109.699 48.7943 108.206L43.5057 127.494ZM64 130.4C69.0558 130.4 74.3317 130.002 78.4392 128.241L70.5608 109.859C70.6904 109.803 70.2982 109.98 69.0248 110.144C67.8245 110.298 66.1741 110.4 64 110.4V130.4ZM78.7993 128.079C80.9217 127.068 83.2046 125.504 84.9619 123.078C86.8004 120.539 87.65 117.619 87.65 114.7H67.65C67.65 113.681 67.9746 112.436 68.7631 111.347C69.4704 110.371 70.1783 110.032 70.2007 110.021L78.7993 128.079ZM87.65 114.7C87.65 111.273 86.4861 108.008 84.2251 105.343C82.1216 102.864 79.4755 101.373 77.1065 100.442L69.7935 119.058C70.2245 119.227 69.6784 119.111 68.9749 118.282C68.6014 117.842 68.2423 117.266 67.9896 116.571C67.7377 115.878 67.65 115.229 67.65 114.7H87.65ZM77.223 100.489C73.6084 99.0165 68.3313 97.6688 61.9709 96.3563L57.9291 115.944C64.1687 117.231 67.8916 118.284 69.677 119.011L77.223 100.489ZM62.004 96.3632C54.1618 94.7173 47.8682 93.023 43.0191 91.3169L36.3809 110.183C42.3318 112.277 49.5382 114.183 57.896 115.937L62.004 96.3632ZM43.1731 91.3725C39.3253 89.9474 35.9583 87.678 32.9994 84.4233L18.2006 97.8767C23.2417 103.422 29.2747 107.553 36.2269 110.127L43.1731 91.3725ZM33.0741 84.5064C31.0944 82.2792 29.6 78.8154 29.6 73H9.6C9.6 82.3846 12.1056 91.0208 18.1259 97.7936L33.0741 84.5064ZM29.6 73C29.6 66.889 31.6702 61.8719 36.1211 57.4211L21.9789 43.2789C13.8298 51.4281 9.6 61.511 9.6 73H29.6ZM36.0652 57.4765C40.501 53.11 47.4207 49.7486 57.9142 48.2495L55.0858 28.4505C41.7793 30.3514 30.399 34.99 22.0348 43.2235L36.0652 57.4765ZM66.5 38.35V22H46.5V38.35H66.5ZM56.5 32H77.65V12H56.5V32ZM67.65 22V38.05H87.65V22H67.65ZM76.7372 48.0082C87.6847 49.0118 96.3862 51.6089 103.173 55.4517L113.027 38.0483C103.214 32.4911 91.6154 29.2882 78.5628 28.0917L76.7372 48.0082ZM98.8644 42.9154L88.2145 68.5654L106.686 76.2346L117.336 50.5846L98.8644 42.9154ZM101.957 63.4731C90.6061 57.7427 79.3127 54.6 68.2 54.6V74.6C75.4874 74.6 83.6939 76.6573 92.9432 81.3269L101.957 63.4731ZM68.2 54.6C63.1638 54.6 57.9316 55.1574 53.6095 57.2472C51.3127 58.3577 48.947 60.059 47.17 62.6366C45.3383 65.2936 44.55 68.2799 44.55 71.2H64.55C64.55 71.9201 64.3305 72.9814 63.6363 73.9884C62.9968 74.916 62.3373 75.2423 62.3155 75.2528C62.3027 75.259 62.4065 75.2081 62.6682 75.1321C62.9283 75.0567 63.3048 74.968 63.8193 74.8851C64.8649 74.7166 66.3017 74.6 68.2 74.6V54.6ZM44.55 71.2C44.55 74.6023 45.7172 77.8135 47.9196 80.4237C49.9664 82.8496 52.5344 84.3269 54.827 85.2609L62.373 66.7391C61.9656 66.5731 62.5086 66.7004 63.2054 67.5263C63.5763 67.9659 63.9393 68.5463 64.1973 69.2536C64.4553 69.9605 64.55 70.6339 64.55 71.2H44.55ZM55.1269 85.3775C58.6505 86.6825 63.7914 87.9065 70.0498 89.1178L73.8502 69.4822C67.7086 68.2935 63.9495 67.3174 62.0731 66.6225L55.1269 85.3775ZM70.1071 89.1287C77.7618 90.564 83.9493 92.1904 88.7826 93.9479L95.6174 75.1521C89.4507 72.9096 82.1382 71.036 73.7929 69.4713L70.1071 89.1287ZM88.9348 94.0019C92.8142 95.3421 96.1527 97.539 99.0506 100.727L113.849 87.2733C108.747 81.661 102.586 77.5579 95.4652 75.0981L88.9348 94.0019ZM99.1339 100.817C101.088 102.914 102.6 106.235 102.6 112H122.6C122.6 102.565 120.012 93.8861 113.766 87.1827L99.1339 100.817Z" fill="black" mask="url(#path-1-outside-1_1_38)"/>
</svg>
